<svg width="29" height="26" viewBox="0 0 29 26" fill="none" xmlns="http://www.w3.org/2000/svg">
<g filter="url(#filter0_iii_74_874)">
<path d="M13.4425 1.4966L0.782504 23.4266C0.272504 24.3166 0.912504 25.4366 1.9425 25.4366H27.2625C28.2925 25.4366 28.9325 24.3266 28.4225 23.4266L15.7625 1.4966C15.2425 0.606602 13.9625 0.606602 13.4425 1.4966Z" fill="url(#paint0_linear_74_874)"/>
</g>
<g filter="url(#filter1_i_74_874)">
<path d="M13.2021 17.1349C13.2021 17.9049 13.8221 18.5349 14.6021 18.5349C15.3821 18.5349 16.0021 17.9049 16.0021 17.1249V7.96494C16.0021 7.19494 15.3821 6.56494 14.6021 6.56494C13.8321 6.56494 13.2021 7.18494 13.2021 7.96494V17.1349Z" fill="#4A4351"/>
<path d="M16.0021 21.115C16.0021 21.8882 15.3753 22.515 14.6021 22.515C13.8289 22.515 13.2021 21.8882 13.2021 21.115C13.2021 20.3418 13.8289 19.715 14.6021 19.715C15.3753 19.715 16.0021 20.3418 16.0021 21.115Z" fill="#4A4351"/>
</g>
<defs>
<filter id="filter0_iii_74_874" x="0.153516" y="0.429102" width="29.048" height="25.0074" filterUnits="userSpaceOnUse" color-interpolation-filters="sRGB">
<feFlood flood-opacity="0" result="BackgroundImageFix"/>
<feBlend mode="normal" in="SourceGraphic" in2="BackgroundImageFix" result="shape"/>
<feColorMatrix in="SourceAlpha" type="matrix" values="0 0 0 0 0 0 0 0 0 0 0 0 0 0 0 0 0 0 127 0" result="hardAlpha"/>
<feOffset dx="-0.45"/>
<feGaussianBlur stdDeviation="0.3"/>
<feComposite in2="hardAlpha" operator="arithmetic" k2="-1" k3="1"/>
<feColorMatrix type="matrix" values="0 0 0 0 1 0 0 0 0 0.996078 0 0 0 0 0.458824 0 0 0 1 0"/>
<feBlend mode="normal" in2="shape" result="effect1_innerShadow_74_874"/>
<feColorMatrix in="SourceAlpha" type="matrix" values="0 0 0 0 0 0 0 0 0 0 0 0 0 0 0 0 0 0 127 0" result="hardAlpha"/>
<feOffset dx="0.6" dy="-0.4"/>
<feGaussianBlur stdDeviation="0.4"/>
<feComposite in2="hardAlpha" operator="arithmetic" k2="-1" k3="1"/>
<feColorMatrix type="matrix" values="0 0 0 0 0.929412 0 0 0 0 0.411765 0 0 0 0 0.313726 0 0 0 1 0"/>
<feBlend mode="normal" in2="effect1_innerShadow_74_874" result="effect2_innerShadow_74_874"/>
<feColorMatrix in="SourceAlpha" type="matrix" values="0 0 0 0 0 0 0 0 0 0 0 0 0 0 0 0 0 0 127 0" result="hardAlpha"/>
<feOffset dx="0.3"/>
<feGaussianBlur stdDeviation="0.3"/>
<feComposite in2="hardAlpha" operator="arithmetic" k2="-1" k3="1"/>
<feColorMatrix type="matrix" values="0 0 0 0 0.737255 0 0 0 0 0.564706 0 0 0 0 0.239216 0 0 0 1 0"/>
<feBlend mode="normal" in2="effect2_innerShadow_74_874" result="effect3_innerShadow_74_874"/>
</filter>
<filter id="filter1_i_74_874" x="12.4521" y="6.56494" width="3.5498" height="16.7" filterUnits="userSpaceOnUse" color-interpolation-filters="sRGB">
<feFlood flood-opacity="0" result="BackgroundImageFix"/>
<feBlend mode="normal" in="SourceGraphic" in2="BackgroundImageFix" result="shape"/>
<feColorMatrix in="SourceAlpha" type="matrix" values="0 0 0 0 0 0 0 0 0 0 0 0 0 0 0 0 0 0 127 0" result="hardAlpha"/>
<feOffset dx="-0.75" dy="0.75"/>
<feGaussianBlur stdDeviation="0.6"/>
<feComposite in2="hardAlpha" operator="arithmetic" k2="-1" k3="1"/>
<feColorMatrix type="matrix" values="0 0 0 0 0.180392 0 0 0 0 0.145098 0 0 0 0 0.223529 0 0 0 1 0"/>
<feBlend mode="normal" in2="shape" result="effect1_innerShadow_74_874"/>
</filter>
<linearGradient id="paint0_linear_74_874" x1="14.6025" y1="0.829102" x2="14.6025" y2="25.4366" gradientUnits="userSpaceOnUse">
<stop stop-color="#FFD758"/>
<stop offset="1" stop-color="#FFA956"/>
</linearGradient>
</defs>
</svg>
