<svg xmlns="http://www.w3.org/2000/svg" xmlns:xlink="http://www.w3.org/1999/xlink" width="44.555" height="38" viewBox="0 0 44.555 38"><defs><style>.a{fill:url(#a);}.b{fill:url(#b);}.c{fill:url(#c);}</style><linearGradient id="a" x1="-0.096" y1="-0.031" x2="0.929" y2="0.826" gradientUnits="objectBoundingBox"><stop offset="0" stop-color="#0d61a9"/><stop offset="1" stop-color="#16528c"/></linearGradient><linearGradient id="b" x1="-0.243" y1="-0.051" x2="1.06" y2="0.916" gradientUnits="objectBoundingBox"><stop offset="0" stop-color="#ef3258"/><stop offset="1" stop-color="#e41e3c"/></linearGradient><linearGradient id="c" x1="-0.075" y1="-0.039" x2="0.947" y2="0.818" gradientUnits="objectBoundingBox"><stop offset="0" stop-color="#f0f0f0"/><stop offset="1" stop-color="#bbc1c4"/></linearGradient></defs><g transform="translate(-3.346 -5.738)"><path class="a" d="M33.248,38.419,13.47,43.64a2.153,2.153,0,0,1-2.631-1.532L3.418,14A2.153,2.153,0,0,1,4.95,11.372L24.729,6.15A2.153,2.153,0,0,1,27.36,7.682l7.42,28.106A2.152,2.152,0,0,1,33.248,38.419Z" transform="translate(0 0.026)"/><path class="b" d="M34.609,39.375H14.153A2.153,2.153,0,0,1,12,37.222V8.153A2.153,2.153,0,0,1,14.153,6H34.609a2.153,2.153,0,0,1,2.153,2.153V37.222A2.153,2.153,0,0,1,34.609,39.375Z" transform="translate(0.663 0.02)"/><path class="c" d="M36.753,43.341l-19.76-5.287a2.153,2.153,0,0,1-1.523-2.637L22.983,7.336A2.153,2.153,0,0,1,25.62,5.812L45.38,11.1A2.153,2.153,0,0,1,46.9,13.736L39.39,41.818A2.154,2.154,0,0,1,36.753,43.341Z" transform="translate(0.923)"/><path d="M29.394,24.585a14.9,14.9,0,0,1-4.05,6.711A5.2,5.2,0,0,1,29.5,32.423,14.877,14.877,0,0,1,29.394,24.585Z" transform="translate(1.686 1.444)"/><path d="M32.179,15.9c-3.205,3.593-8.683,3.223-9.95,7.9a3.768,3.768,0,0,0,2.651,4.623A4.374,4.374,0,0,0,29.22,26.81a4.362,4.362,0,0,0,2.933,3.584,3.768,3.768,0,0,0,4.623-2.651C38.043,23.066,33.129,20.619,32.179,15.9Z" transform="translate(1.437 0.779)"/><path d="M25.684,10.758a4.256,4.256,0,0,1-1.157,1.917A1.487,1.487,0,0,1,25.715,13,4.258,4.258,0,0,1,25.684,10.758Z" transform="translate(1.623 0.385)"/><path d="M26.48,8.276C25.564,9.3,24,9.2,23.637,10.533a1.076,1.076,0,0,0,.757,1.321,1.249,1.249,0,0,0,1.24-.461,1.245,1.245,0,0,0,.838,1.024,1.076,1.076,0,0,0,1.321-.757C28.156,10.324,26.752,9.625,26.48,8.276Z" transform="translate(1.552 0.194)"/><path d="M34.4,35.917a4.256,4.256,0,0,1-1.157,1.917,1.487,1.487,0,0,1,1.188.322A4.26,4.26,0,0,1,34.4,35.917Z" transform="translate(2.291 2.312)"/><path d="M35.2,33.435c-.916,1.026-2.481.921-2.843,2.257a1.076,1.076,0,0,0,.757,1.321,1.249,1.249,0,0,0,1.24-.461,1.245,1.245,0,0,0,.838,1.024,1.076,1.076,0,0,0,1.321-.757C36.875,35.483,35.471,34.783,35.2,33.435Z" transform="translate(2.22 2.122)"/></g></svg>