<svg width="134" height="20" viewBox="0 0 134 20" fill="none" xmlns="http://www.w3.org/2000/svg">
<path d="M39.0358 3.99997V16H36.9498V6.59442H36.9164L33.1867 16H31.8044L27.9828 6.59442H27.9577V16H26.0303V3.99997H29.023L32.4746 12.8944H32.5247L36.1711 3.99997H39.0358ZM40.7825 4.91109C40.7825 4.57497 40.9048 4.2972 41.1469 4.06942C41.3889 3.84442 41.6781 3.73053 42.0147 3.73053C42.3734 3.73053 42.6683 3.8472 42.9019 4.07775C43.1355 4.30831 43.2524 4.58609 43.2524 4.91109C43.2524 5.24164 43.1327 5.51664 42.8936 5.73886C42.6516 5.96109 42.3595 6.07497 42.0119 6.07497C41.6642 6.07497 41.3749 5.96109 41.1357 5.73609C40.8993 5.51109 40.7825 5.23608 40.7825 4.91109ZM43.0188 16H40.9912V7.39719H43.0188V16ZM49.1682 14.5278C49.4686 14.5278 49.8024 14.4583 50.1667 14.3194C50.5311 14.1806 50.8649 13.9972 51.1736 13.7667V15.65C50.8482 15.8333 50.481 15.975 50.0722 16.0694C49.6606 16.1639 49.21 16.2111 48.7177 16.2111C47.4494 16.2111 46.4175 15.8111 45.6248 15.0111C44.8322 14.2111 44.4344 13.1889 44.4344 11.9444C44.4344 10.5611 44.8405 9.4222 45.6498 8.52497C46.4593 7.63053 47.6079 7.18053 49.0931 7.18053C49.4742 7.18053 49.858 7.23053 50.2446 7.32775C50.634 7.42497 50.9427 7.53886 51.1708 7.66664V9.60831C50.8565 9.38053 50.5395 9.20275 50.2113 9.07775C49.8831 8.95275 49.5493 8.88886 49.21 8.88886C48.4118 8.88886 47.7664 9.1472 47.2742 9.66664C46.7819 10.1861 46.5371 10.8861 46.5371 11.7667C46.5371 12.6361 46.7736 13.3139 47.2464 13.8C47.7164 14.2833 48.3589 14.5278 49.1682 14.5278ZM56.9449 7.25553C57.1062 7.25553 57.2536 7.26664 57.3816 7.28886C57.5095 7.31108 57.6208 7.33886 57.7098 7.3722V9.42219C57.6041 9.34442 57.4484 9.26942 57.2453 9.19997C57.0422 9.13053 56.7947 9.09442 56.5026 9.09442C56.0048 9.09442 55.5848 9.30275 55.2427 9.7222C54.8978 10.1417 54.7282 10.7861 54.7282 11.6556V16H52.7006V7.39719H54.7282V8.75275H54.7615C54.9451 8.28331 55.226 7.91664 55.5987 7.65275C55.9687 7.38609 56.4192 7.25553 56.9449 7.25553ZM57.8154 11.825C57.8154 10.4028 58.2159 9.27497 59.0226 8.44442C59.8264 7.61386 60.9444 7.1972 62.3741 7.1972C63.7202 7.1972 64.7715 7.5972 65.5281 8.3972C66.2847 9.1972 66.6629 10.2778 66.6629 11.6417C66.6629 13.0361 66.2597 14.1472 65.4558 14.9722C64.652 15.7972 63.5562 16.2111 62.171 16.2111C60.836 16.2111 59.7763 15.8194 58.9919 15.0361C58.2076 14.25 57.8154 13.1806 57.8154 11.825ZM59.9292 11.7556C59.9292 12.6556 60.1323 13.3417 60.5412 13.8139C60.95 14.2889 61.5313 14.525 62.2934 14.525C63.0305 14.525 63.5923 14.2889 63.9761 13.8139C64.3627 13.3389 64.5547 12.6361 64.5547 11.7056C64.5547 10.7806 64.3544 10.0806 63.9567 9.60831C63.5589 9.13608 62.9971 8.89997 62.2767 8.89997C61.5341 8.89997 60.9584 9.1472 60.5467 9.64164C60.1323 10.1361 59.9292 10.8417 59.9292 11.7556ZM69.6806 9.65553C69.6806 9.9472 69.7725 10.1722 69.956 10.3389C70.1395 10.5028 70.5485 10.7111 71.1798 10.9611C71.9892 11.2861 72.5593 11.65 72.8848 12.0528C73.213 12.4583 73.3743 12.9472 73.3743 13.5222C73.3743 14.3306 73.0628 14.9806 72.4398 15.4722C71.8168 15.9639 70.974 16.2083 69.9143 16.2083C69.5555 16.2083 69.1606 16.1667 68.7294 16.0778C68.2956 15.9917 67.9284 15.8806 67.628 15.7472V13.7556C67.9952 14.0111 68.3929 14.2167 68.8184 14.3667C69.244 14.5167 69.6278 14.5917 69.9755 14.5917C70.4344 14.5917 70.7709 14.5278 70.9879 14.4C71.2048 14.2722 71.3161 14.0556 71.3161 13.7556C71.3161 13.4778 71.2021 13.2417 70.9768 13.0472C70.7515 12.8556 70.3232 12.6333 69.6918 12.3806C68.9436 12.0667 68.4124 11.7167 68.1008 11.325C67.7893 10.9333 67.6308 10.4389 67.6308 9.83609C67.6308 9.06109 67.9395 8.42219 68.557 7.92497C69.1745 7.42497 69.9755 7.17497 70.9573 7.17497C71.2577 7.17497 71.597 7.20831 71.9725 7.27497C72.3452 7.34164 72.6595 7.42775 72.9098 7.53331V9.45831C72.6428 9.28053 72.3285 9.12497 71.9725 8.9972C71.6137 8.86942 71.2605 8.80553 70.9072 8.80553C70.5206 8.80553 70.223 8.88053 70.0061 9.03053C69.7892 9.18886 69.6806 9.39442 69.6806 9.65553ZM74.2476 11.825C74.2476 10.4028 74.6509 9.27497 75.4547 8.44442C76.2586 7.61386 77.3766 7.1972 78.8062 7.1972C80.1524 7.1972 81.2037 7.5972 81.9603 8.3972C82.7169 9.1972 83.095 10.2778 83.095 11.6417C83.095 13.0361 82.6918 14.1472 81.888 14.9722C81.0842 15.7972 79.9884 16.2111 78.6032 16.2111C77.2682 16.2111 76.2085 15.8194 75.4241 15.0361C74.6398 14.25 74.2476 13.1806 74.2476 11.825ZM76.3587 11.7556C76.3587 12.6556 76.5617 13.3417 76.9706 13.8139C77.3794 14.2889 77.9608 14.525 78.7228 14.525C79.4599 14.525 80.0217 14.2889 80.4083 13.8139C80.7949 13.3389 80.9868 12.6361 80.9868 11.7056C80.9868 10.7806 80.7866 10.0806 80.3889 9.60831C79.9884 9.13608 79.4292 8.89997 78.7089 8.89997C77.9663 8.89997 77.3877 9.1472 76.9789 9.64164C76.5645 10.1361 76.3587 10.8417 76.3587 11.7556ZM89.8232 9.05275H86.8026V16H84.75V9.05275H83.3092V7.39719H84.75V6.19997C84.75 5.2972 85.0448 4.55553 85.6345 3.97775C86.2241 3.39997 86.9778 3.11108 87.9012 3.11108C88.146 3.11108 88.3657 3.12497 88.5548 3.14997C88.744 3.17497 88.9136 3.21386 89.0583 3.26386V5.01386C88.9915 4.97497 88.8747 4.92775 88.705 4.8722C88.5381 4.81664 88.3463 4.78886 88.1265 4.78886C87.7009 4.78886 87.3755 4.9222 87.1447 5.18608C86.9166 5.44997 86.8026 5.84442 86.8026 6.36109V7.39997H89.8232V5.46664L91.8591 4.8472V7.39997H93.9117V9.05553H91.8591V13.0806C91.8591 13.6111 91.9564 13.9833 92.1483 14.2028C92.3403 14.4194 92.6434 14.5306 93.0578 14.5306C93.1747 14.5306 93.3165 14.5028 93.4807 14.4472C93.6447 14.3917 93.7894 14.325 93.9117 14.2472V15.9222C93.7837 15.9944 93.5696 16.0611 93.2692 16.1222C92.9716 16.1833 92.6768 16.2139 92.3848 16.2139C91.5309 16.2139 90.8884 15.9861 90.4629 15.5333C90.0345 15.0778 89.8204 14.3944 89.8204 13.4778V9.05275H89.8232Z" fill="white"/>
<path d="M9.51776 0H0V9.50556H9.51776V0Z" fill="#F25022"/>
<path d="M20.0255 0H10.5078V9.50556H20.0255V0Z" fill="#7FBA00"/>
<path d="M9.51776 10.4944H0V20H9.51776V10.4944Z" fill="#00A4EF"/>
<path d="M20.0255 10.4944H10.5078V20H20.0255V10.4944Z" fill="#FFB900"/>
<path d="M100.873 7.03601C100.873 7.47767 101.027 7.84989 101.335 8.15267C101.641 8.45823 102.192 8.81378 102.987 9.21934C104.055 9.77212 104.82 10.3249 105.282 10.8805C105.747 11.436 105.978 12.0749 105.978 12.7999C105.978 13.8666 105.59 14.6999 104.82 15.3027C104.05 15.9055 103.062 16.2055 101.864 16.2055C101.177 16.2055 100.548 16.136 99.9781 15.9971C99.4079 15.8582 98.9768 15.6971 98.6875 15.511V13.2277C99.0575 13.5694 99.5303 13.8499 100.109 14.0721C100.687 14.2943 101.255 14.4082 101.814 14.4082C102.423 14.4082 102.907 14.2916 103.262 14.0555C103.622 13.8221 103.8 13.4693 103.8 12.9999C103.8 12.586 103.627 12.211 103.285 11.8749C102.943 11.5388 102.309 11.1277 101.388 10.6499C100.484 10.1805 99.8084 9.67212 99.3634 9.12212C98.9184 8.57212 98.6959 7.92489 98.6959 7.17767C98.6959 6.19156 99.0825 5.38045 99.8529 4.74712C100.623 4.11378 101.61 3.79712 102.81 3.79712C103.34 3.79712 103.855 3.84712 104.356 3.94434C104.856 4.04156 105.224 4.14712 105.457 4.25823V6.44156C105.127 6.18045 104.728 5.97212 104.264 5.82212C103.797 5.67212 103.324 5.59712 102.843 5.59712C102.256 5.59712 101.78 5.72767 101.419 5.99156C101.055 6.25267 100.873 6.60267 100.873 7.03601Z" fill="var(--gradient-1)"/>
<path d="M110.97 14.5277C111.086 14.5277 111.229 14.4999 111.393 14.4444C111.557 14.3888 111.701 14.3221 111.823 14.2444V15.9194C111.696 15.9916 111.482 16.0582 111.185 16.1194C110.886 16.1805 110.592 16.211 110.299 16.211C109.445 16.211 108.803 15.9832 108.378 15.5277C107.949 15.0721 107.738 14.3888 107.738 13.4721V9.05267H106.322V7.39433H107.738V5.461L109.774 4.84155V7.39433H111.826V9.05267H109.774V13.0777C109.774 13.6082 109.871 13.9805 110.063 14.1999C110.252 14.4194 110.556 14.5277 110.97 14.5277Z" fill="var(--gradient-1)"/>
<path d="M119.948 10.6112C119.948 12.0279 119.948 13.1445 119.954 13.964C119.957 14.7807 120.001 15.4612 120.084 16.0029H118.066L117.966 15.0834H117.93C117.673 15.4307 117.337 15.6918 116.919 15.8751C116.503 16.0557 115.979 16.1473 115.348 16.1473C114.589 16.1473 113.951 15.9168 113.443 15.4557C112.931 14.9945 112.675 14.3751 112.675 13.5945C112.675 12.7584 113.003 12.0862 113.66 11.5807C114.316 11.0751 115.345 10.7362 116.747 10.564L117.98 10.414C117.98 9.84455 117.845 9.44177 117.576 9.2001C117.309 8.96121 116.905 8.83621 116.369 8.83066C115.788 8.83066 115.237 8.91955 114.716 9.09455C114.197 9.26955 113.799 9.47788 113.518 9.71677V7.86677C113.796 7.71677 114.23 7.56399 114.817 7.41121C115.403 7.25844 116.021 7.18066 116.669 7.18066C117.743 7.18066 118.555 7.4751 119.111 8.06677C119.671 8.65844 119.948 9.50566 119.948 10.6112ZM117.072 11.8918C116.179 11.9973 115.548 12.1695 115.184 12.4112C114.817 12.6501 114.636 12.9807 114.636 13.3973C114.636 13.7557 114.744 14.039 114.959 14.2501C115.173 14.4612 115.498 14.5668 115.935 14.5668C116.567 14.5668 117.067 14.3723 117.434 13.9862C117.804 13.5973 117.991 13.1112 117.996 12.5251V11.7807L117.072 11.8918Z" fill="var(--gradient-1)"/>
<path d="M125.994 7.25562C126.156 7.25562 126.301 7.26673 126.431 7.28895C126.559 7.31118 126.667 7.33895 126.759 7.37229V9.42229C126.654 9.34451 126.498 9.26951 126.295 9.20007C126.092 9.13062 125.844 9.09451 125.553 9.09451C125.054 9.09451 124.635 9.30284 124.292 9.72229C123.951 10.1418 123.778 10.7862 123.778 11.6557V16.0001H121.75V7.39729H123.778V8.75284H123.812C123.995 8.2834 124.276 7.91673 124.649 7.65284C125.021 7.38618 125.469 7.25562 125.994 7.25562Z" fill="var(--gradient-1)"/>
<path d="M132.069 14.5277C132.186 14.5277 132.327 14.4999 132.491 14.4444C132.656 14.3888 132.8 14.3221 132.923 14.2444V15.9194C132.795 15.9916 132.581 16.0582 132.283 16.1194C131.985 16.1805 131.69 16.211 131.398 16.211C130.545 16.211 129.902 15.9832 129.477 15.5277C129.048 15.0721 128.837 14.3888 128.837 13.4721V9.05267H127.421V7.39433H128.837V5.461L130.872 4.84155V7.39433H132.925V9.05267H130.872V13.0777C130.872 13.6082 130.97 13.9805 131.162 14.1999C131.351 14.4194 131.654 14.5277 132.069 14.5277Z" fill="var(--gradient-1)"/>
</svg>
